<?xml version="1.0" ?><svg height="512px" version="1.1" viewBox="0 0 512 512" width="512px" xmlns="http://www.w3.org/2000/svg" xmlns:xlink="http://www.w3.org/1999/xlink"><title/><desc/><defs/><g fill="none" fill-rule="evenodd" id="SVG" stroke="none" stroke-width="1"><g id="Weight"><g id="10" transform="translate(0.000000, 79.000000)"><polygon fill="#FEFEFE" id="Fill-1" points="163.570731 197.179666 348.329417 197.179666 348.329417 153.555311 163.570731 153.555311"/><g id="Group-22" transform="translate(0.000000, 0.991931)"><path d="M173.889719,185.890878 L338.024179,185.890878 L338.024179,162.860238 L173.889719,162.860238 L173.889719,185.890878 Z M348.336291,206.484594 L163.577606,206.484594 C157.88532,206.484594 153.265493,201.878466 153.265493,196.187736 L153.265493,152.56338 C153.265493,146.879515 157.88532,142.266522 163.577606,142.266522 L348.336291,142.266522 C354.028578,142.266522 358.648404,146.879515 358.648404,152.56338 L358.648404,196.187736 C358.648404,201.878466 354.028578,206.484594 348.336291,206.484594 L348.336291,206.484594 Z" fill="#2E2E30" id="Fill-2"/><polygon fill="#829DC5" id="Fill-4" points="350.206221 336.190683 400.666826 336.190683 400.666826 12.5604334 350.206221 12.5604334"/><polygon fill="#CDE4F6" id="Fill-6" points="400.666826 302.657248 451.127431 302.657248 451.127431 46.0938678 400.666826 46.0938678"/><polygon fill="#829DC5" id="Fill-8" points="451.134305 259.094674 501.59491 259.094674 501.59491 89.656442 451.134305 89.656442"/><polygon fill="#829DC5" id="Fill-10" points="111.240197 336.190683 161.700802 336.190683 161.700802 12.5604334 111.240197 12.5604334"/><polygon fill="#CDE4F6" id="Fill-14" points="60.7795921 302.657248 111.240197 302.657248 111.240197 46.0938678 60.7795921 46.0938678"/><polygon fill="#829DC5" id="Fill-16" points="10.3121127 259.094674 60.7727174 259.094674 60.7727174 89.656442 10.3121127 89.656442"/><polygon fill="#010202" id="Fill-12" opacity="0.3" points="111.240197 336.190683 161.700802 336.190683 161.700802 302.657248 111.240197 302.657248"/><polygon fill="#010202" id="Fill-13" opacity="0.3" points="350.206221 336.190683 400.666826 336.190683 400.666826 302.657248 350.206221 302.657248"/><polygon fill="#010202" id="Fill-18" opacity="0.3" points="60.7795921 302.664113 111.240197 302.664113 111.240197 269.130678 60.7795921 269.130678"/><polygon fill="#010202" id="Fill-19" opacity="0.3" points="402.54363 302.664113 453.004235 302.664113 453.004235 269.130678 402.54363 269.130678"/><polygon fill="#010202" id="Fill-20" opacity="0.3" points="10.3121127 259.101538 60.7727174 259.101538 60.7727174 225.568104 10.3121127 225.568104"/><polygon fill="#010202" id="Fill-21" opacity="0.3" points="453.01111 259.101538 503.471715 259.101538 503.471715 225.568104 453.01111 225.568104"/><path d="M360.518334,325.893824 L390.354713,325.893824 L390.354713,22.8572914 L360.518334,22.8572914 L360.518334,325.893824 Z M400.666826,346.487541 L350.206221,346.487541 C344.513935,346.487541 339.894109,341.874548 339.894109,336.190683 L339.894109,12.5604334 C339.894109,6.87656771 344.513935,2.2635753 350.206221,2.2635753 L400.666826,2.2635753 C406.359112,2.2635753 410.978939,6.87656771 410.978939,12.5604334 L410.978939,336.190683 C410.978939,341.874548 406.359112,346.487541 400.666826,346.487541 L400.666826,346.487541 Z" fill="#2E2E30" id="Fill-5"/><path d="M410.978939,292.36039 L440.822193,292.36039 L440.822193,56.3907259 L410.978939,56.3907259 L410.978939,292.36039 Z M451.134305,312.954106 L400.666826,312.954106 C394.97454,312.954106 390.354713,308.341114 390.354713,302.657248 L390.354713,46.0938678 C390.354713,40.4100022 394.97454,35.7970098 400.666826,35.7970098 L451.134305,35.7970098 C456.826592,35.7970098 461.446418,40.4100022 461.446418,46.0938678 L461.446418,302.657248 C461.446418,308.341114 456.826592,312.954106 451.134305,312.954106 L451.134305,312.954106 Z" fill="#2E2E30" id="Fill-7"/><path d="M461.446418,248.80468 L491.282797,248.80468 L491.282797,99.9533001 L461.446418,99.9533001 L461.446418,248.80468 Z M501.59491,269.398397 L451.134305,269.398397 C445.442019,269.398397 440.822193,264.785404 440.822193,259.101538 L440.822193,89.656442 C440.822193,83.9725764 445.442019,79.359584 451.134305,79.359584 L501.59491,79.359584 C507.287196,79.359584 511.907023,83.9725764 511.907023,89.656442 L511.907023,259.101538 C511.907023,264.785404 507.287196,269.398397 501.59491,269.398397 L501.59491,269.398397 Z" fill="#2E2E30" id="Fill-9"/><path d="M121.552309,325.893824 L151.395564,325.893824 L151.395564,22.8572914 L121.552309,22.8572914 L121.552309,325.893824 Z M161.700802,346.487541 L111.240197,346.487541 C105.547911,346.487541 100.928084,341.874548 100.928084,336.190683 L100.928084,12.5604334 C100.928084,6.87656771 105.547911,2.2635753 111.240197,2.2635753 L161.700802,2.2635753 C167.399962,2.2635753 172.012914,6.87656771 172.012914,12.5604334 L172.012914,336.190683 C172.012914,341.874548 167.399962,346.487541 161.700802,346.487541 L161.700802,346.487541 Z" fill="#2E2E30" id="Fill-11"/><path d="M71.08483,292.36039 L100.928084,292.36039 L100.928084,56.3907259 L71.08483,56.3907259 L71.08483,292.36039 Z M111.240197,312.954106 L60.7727174,312.954106 C55.0804312,312.954106 50.4606047,308.341114 50.4606047,302.657248 L50.4606047,46.0938678 C50.4606047,40.4100022 55.0804312,35.7970098 60.7727174,35.7970098 L111.240197,35.7970098 C116.932483,35.7970098 121.552309,40.4100022 121.552309,46.0938678 L121.552309,302.657248 C121.552309,308.341114 116.932483,312.954106 111.240197,312.954106 L111.240197,312.954106 Z" fill="#2E2E30" id="Fill-15"/><path d="M20.6242254,248.80468 L50.4606047,248.80468 L50.4606047,99.9533001 L20.6242254,99.9533001 L20.6242254,248.80468 Z M60.7727174,269.398397 L10.3121127,269.398397 C4.61982648,269.398397 0,264.785404 0,259.101538 L0,89.656442 C0,83.9725764 4.61982648,79.359584 10.3121127,79.359584 L60.7727174,79.359584 C66.4650036,79.359584 71.08483,83.9725764 71.08483,89.656442 L71.08483,259.101538 C71.08483,264.785404 66.4650036,269.398397 60.7727174,269.398397 L60.7727174,269.398397 Z" fill="#2E2E30" id="Fill-17"/></g></g></g></g></svg>